<mxfile host="app.diagrams.net" modified="2024-05-27T08:12:35.384Z" agent="Mozilla/5.0 (Windows NT 6.1; WOW64) AppleWebKit/537.36 (KHTML, like Gecko) Chrome/109.0.0.0 Safari/537.36 OPR/95.0.0.0" version="24.4.8" etag="zcJyqq1K_r2rxELag5Vp" type="github">
  <diagram name="Страница — 1" id="LrOz8V3_CL4yAccr49bo">
    <mxGraphModel>
      <root>
        <mxCell id="0" />
        <mxCell id="1" parent="0" />
      </root>
    </mxGraphModel>
  </diagram>
</mxfile>
